<svg xmlns="http://www.w3.org/2000/svg" viewBox="0 0 140.29 140.29"><defs><style>.cls-1{opacity:0.9;}.cls-2{fill:#fff;}</style></defs><title>Asset 1</title><g id="Layer_2" data-name="Layer 2"><g id="Layer_1-2" data-name="Layer 1"><g class="cls-1"><path class="cls-2" d="M70.15,0a70.15,70.15,0,1,0,70.14,70.14A70.15,70.15,0,0,0,70.15,0ZM41.58,70A16.56,16.56,0,1,1,58.14,53.42,16.56,16.56,0,0,1,41.58,70Zm28.57,49.84a16.56,16.56,0,1,1,16.56-16.56A16.55,16.55,0,0,1,70.15,119.82ZM98.74,70A16.56,16.56,0,1,1,115.3,53.42,16.56,16.56,0,0,1,98.74,70Z"/></g></g></g></svg>